<?xml version="1.0" standalone="no"?>
<!DOCTYPE svg PUBLIC "-//W3C//DTD SVG 20010904//EN"
 "http://www.w3.org/TR/2001/REC-SVG-20010904/DTD/svg10.dtd">
<svg version="1.0" xmlns="http://www.w3.org/2000/svg"
 width="181.000000pt" height="181.000000pt" viewBox="0 0 181.000000 181.000000"
 preserveAspectRatio="xMidYMid meet">
<metadata>
Created by potrace 1.11, written by Peter Selinger 2001-2013
</metadata>
<g transform="translate(0.000000,181.000000) scale(0.100000,-0.100000)"
fill="#000000" stroke="none">
<path d="M888 1791 c-1 -5 -200 -208 -441 -452 l-439 -442 79 -79 78 -78 65
64 c36 35 202 202 370 370 l305 307 114 -117 114 -116 -197 -197 -196 -196 78
-78 c74 -74 96 -88 104 -67 2 5 121 128 266 273 l262 263 -272 277 c-150 152
-276 277 -280 277 -3 0 -8 -4 -10 -9z"/>
<path d="M1575 1001 c-33 -33 -199 -200 -370 -371 l-309 -312 -189 191 c-103
105 -191 191 -195 191 -4 0 -41 -34 -82 -75 l-74 -74 20 -22 c10 -12 132 -136
269 -276 l250 -254 267 268 c360 362 600 606 615 624 10 13 -1 28 -65 92 l-77
76 -60 -58z"/>
</g>
</svg>
