<svg id="Layer_1" data-name="Layer 1" xmlns="http://www.w3.org/2000/svg" viewBox="0 0 389.33 98"><defs><style>.cls-1{fill:#20656f;}</style></defs><title>icon-logo</title><path class="cls-1" d="M16.2,69.14V21.58H35.76c8,0,13.86,7.5,13.86,14.74,0,7.64-5.43,14.87-13.4,14.87H19.62v18H16.2ZM19.62,48H36c6.23,0,10.11-5.69,10.11-11.72,0-6.23-4.76-11.65-10.52-11.65h-16V48Z"/><path class="cls-1" d="M49.75,69.14L70,21.58h2.81L93,69.14H89.34L82.71,53.47H60L53.37,69.14H49.75Zm21.63-43.4L60.81,50.65h21Z"/><path class="cls-1" d="M100.46,69.14V21.58h19.83c8,0,13.8,7.5,13.8,14.74,0,7-4.49,13.33-11.19,14.33l11.86,18.49h-4l-11.52-18H103.87v18h-3.42ZM103.87,48h16.68c6.16,0,10.11-5.76,10.11-11.72s-4.76-11.65-10.58-11.65H103.87V48Z"/><path class="cls-1" d="M138.7,69.14l20.23-47.55h2.81L182,69.14h-3.68l-6.63-15.67H148.95l-6.63,15.67H138.7Zm21.63-43.4L149.75,50.65h21Z"/><path class="cls-1" d="M17.66,78.06a3.23,3.23,0,0,1,3,1.8l-0.49.28a2.77,2.77,0,0,0-2.59-1.53,3.4,3.4,0,0,0-3.26,3.6,3.53,3.53,0,0,0,3.3,3.67,3,3,0,0,0,2.72-1.61l0.5,0.24a3.59,3.59,0,0,1-3.26,1.92,4.14,4.14,0,0,1-3.84-4.25A4,4,0,0,1,17.66,78.06Z"/><path class="cls-1" d="M27,86.35V78.1h3.44a2.53,2.53,0,0,1,2.39,2.55,2.42,2.42,0,0,1-1.94,2.48l2.05,3.2H32.26l-2-3.11H27.59v3.11H27Zm0.59-3.66h2.89a1.9,1.9,0,0,0,1.75-2,2,2,0,0,0-1.83-2H27.59v4.05Z"/><path class="cls-1" d="M44.74,85.81v0.53H39.25V78.1h5.39v0.53H39.85v3.24H44v0.51H39.85v3.42h4.9Z"/><path class="cls-1" d="M50.15,86.35l3.51-8.24h0.49l3.51,8.24H57l-1.15-2.72H51.93l-1.15,2.72H50.15Zm3.75-7.52-1.83,4.32H55.7Z"/><path class="cls-1" d="M68.51,78.64h-3v7.71H64.9V78.64h-3V78.1h6.63v0.53Z"/><path class="cls-1" d="M74.49,86.35V78.12h0.59v8.23H74.49Z"/><path class="cls-1" d="M81.6,78.1l3.15,7.5,3.13-7.5h0.63L85,86.35H84.48L81,78.1H81.6Z"/><path class="cls-1" d="M99.9,85.81v0.53H94.41V78.1H99.8v0.53H95v3.24h4.19v0.51H95v3.42h4.9Z"/><path class="cls-1" d="M118.68,79.47a2.88,2.88,0,0,0-2.26-.89c-1.61,0-2.31.66-2.31,1.69s0.73,1.33,2.41,1.68,2.9,0.81,2.9,2.28-1.2,2.18-2.95,2.18a4.62,4.62,0,0,1-3.26-1.23l0.31-.48a4,4,0,0,0,3,1.18c1.43,0,2.3-.53,2.3-1.59s-0.85-1.46-2.58-1.83-2.72-.77-2.72-2.11S114.68,78,116.41,78A3.53,3.53,0,0,1,119,79Z"/><path class="cls-1" d="M131.08,85.81v0.53h-5.49V78.1H131v0.53h-4.79v3.24h4.19v0.51h-4.19v3.42h4.9Z"/><path class="cls-1" d="M137.37,86.35V78.1h3.44a2.53,2.53,0,0,1,2.39,2.55,2.42,2.42,0,0,1-1.94,2.48l2.05,3.2h-0.69l-2-3.11H138v3.11h-0.59ZM138,82.69h2.89a1.9,1.9,0,0,0,1.75-2,2,2,0,0,0-1.83-2H138v4.05Z"/><path class="cls-1" d="M149.1,78.1l3.15,7.5,3.13-7.5H156l-3.49,8.24H152l-3.49-8.24h0.62Z"/><path class="cls-1" d="M161.91,86.35V78.12h0.59v8.23h-0.59Z"/><path class="cls-1" d="M172.68,78.06a3.23,3.23,0,0,1,3,1.8l-0.49.28a2.77,2.77,0,0,0-2.59-1.53,3.4,3.4,0,0,0-3.26,3.6,3.53,3.53,0,0,0,3.3,3.67,3,3,0,0,0,2.72-1.61l0.5,0.24a3.59,3.59,0,0,1-3.26,1.92,4.14,4.14,0,0,1-3.84-4.25A4,4,0,0,1,172.68,78.06Z"/><path class="cls-1" d="M187.52,85.81v0.53H182V78.1h5.39v0.53h-4.79v3.24h4.19v0.51h-4.19v3.42h4.9Z"/><path class="cls-1" d="M198.47,79.47a2.88,2.88,0,0,0-2.26-.89c-1.61,0-2.31.66-2.31,1.69s0.73,1.33,2.41,1.68,2.9,0.81,2.9,2.28-1.2,2.18-2.95,2.18A4.62,4.62,0,0,1,193,85.18l0.31-.48a4,4,0,0,0,3,1.18c1.43,0,2.3-.53,2.3-1.59s-0.85-1.46-2.58-1.83-2.72-.77-2.72-2.11S194.48,78,196.21,78a3.53,3.53,0,0,1,2.57,1Z"/><polygon class="cls-1" points="193.44 63.97 193.44 21.59 197.31 21.59 197.31 61.03 221.55 61.03 221.55 63.97 193.44 63.97"/><polygon class="cls-1" points="191.67 21.59 191.67 65.74 193.44 65.74 221.55 65.74 221.55 69.14 188.06 69.14 188.06 21.59 191.67 21.59"/><rect class="cls-1" x="227.51" y="21.65" width="3.73" height="47.49"/><rect class="cls-1" x="233.02" y="21.65" width="3.73" height="47.49"/><rect class="cls-1" x="246.67" y="21.65" width="3.35" height="47.49"/><polygon class="cls-1" points="280.35 21.59 276.47 21.59 255.91 44.83 255.91 21.65 251.79 21.65 251.79 52.98 280.35 21.59"/><polygon class="cls-1" points="251.79 55.62 251.79 69.14 255.91 69.14 255.91 54.81 262.27 47.91 277.41 69.14 281.54 69.14 262.59 43.74 251.79 55.62"/><polygon class="cls-1" points="267.83 42.68 286.05 21.59 282.75 21.59 263.81 42.41 283.75 69.14 287.19 69.14 267.83 42.68"/><polygon class="cls-1" points="296.71 21.59 296.71 43.89 326.08 43.89 326.08 21.59 322.15 21.59 322.15 40.81 300.58 40.81 300.58 21.59 296.71 21.59"/><rect class="cls-1" x="291.34" y="21.58" width="3.59" height="47.55"/><polygon class="cls-1" points="326.08 69.14 326.08 45.66 296.71 45.66 296.71 69.14 300.58 69.14 300.58 48.84 322.15 48.84 322.15 69.14 326.08 69.14"/><rect class="cls-1" x="327.86" y="21.58" width="3.47" height="47.55"/><polygon class="cls-1" points="341.13 69.15 341.14 69.14 340.16 69.14 341.13 69.15"/><polygon class="cls-1" points="358.92 21.59 358.92 21.59 358.92 21.59 358.92 21.59"/><path class="cls-1" d="M370,52.27L358.92,21.59,347.45,52.27H370Zm-4.45-1.49H352.09l6.83-19.22Z"/><polygon class="cls-1" points="362.67 21.59 360.66 21.59 378.05 69.14 381.36 69.14 362.67 21.59"/><polygon class="cls-1" points="346.82 53.94 341.14 69.14 346.19 69.14 350.55 57.28 367.23 57.28 371.58 69.14 376.1 69.14 370.61 53.94 346.82 53.94"/><polygon class="cls-1" points="357.21 21.59 355.17 21.59 336.41 69.14 340.16 69.14 339.19 69.13 357.21 21.59"/></svg>